# xmcd
#
# Track frame offsets:
#	150
#	14002
#	31395
#	52178
#	72649
#	94895
#	116028
#	135505
#	158748
#	181485
#	201306
#	223514
#
# Disc length: 3318 seconds
#
# Revision: 0
# Processed by: cddbd v1.5.2PL0 Copyright (c) Steve Scherf et al.
# Submitted via: EasyCDDAExtractor 16.0.9.1
#
DISCID=b80cf40c
DTITLE=Vu Hung and Hien Luong - Tieng hat nghe si
DYEAR=1900
DGENRE=
TTITLE0=Vu Hung and Hien Luong - Cuoc Doi Van Dep Sao
TTITLE1=Hien Luong - Xuan Ve Nui Rung
TTITLE2=Vu Hung - Mau Hoa Do
TTITLE3=Vu Hung and Hien Luong - Bai Ca Tren Nui
TTITLE4=Hien Luong - Ha Noi Mua Thu
TTITLE5=Vu Hung - Ha Noi Nhung Ky Niem Trong Toi
TTITLE6=Vu Hung and Hien Luong - Nhac Rung
TTITLE7=Hien Luong - Dat Nuoc Loi Ru
TTITLE8=Vu Hung and Hien Luong - Tinh Ca Tay Bac
TTITLE9=Vu Hung and Hien Luong - Truong Son Dong Truong Son Tay
TTITLE10=Vu Hung - Tu Nguyen
TTITLE11=Vu Hung and Hien Luong - Se Ve Thu Do
EXTD=
EXTT0=
EXTT1=
EXTT2=
EXTT3=
EXTT4=
EXTT5=
EXTT6=
EXTT7=
EXTT8=
EXTT9=
EXTT10=
EXTT11=
PLAYORDER=
